<svg width="61" height="74" viewBox="0 0 61 74" fill="none" xmlns="http://www.w3.org/2000/svg">
<path d="M16.0938 44.79L16.9688 50.79L18.25 45.3838L27.25 13.6338H32.3125L41.0938 45.3838L42.3438 50.8838L43.3125 44.7588L50.375 13.6338H56.4062L45.375 59.1338H39.9062L30.5312 25.9775L29.8125 22.5088L29.0938 25.9775L19.375 59.1338H13.9062L2.90625 13.6338H8.90625L16.0938 44.79Z" fill="white"/>
<path d="M16.0938 44.79L17.0833 44.6457L17.0774 44.6052L17.0682 44.5653L16.0938 44.79ZM16.9688 50.79L15.9792 50.9343L17.9418 51.0206L16.9688 50.79ZM18.25 45.3838L17.2879 45.1111L17.282 45.132L17.277 45.1532L18.25 45.3838ZM27.25 13.6338V12.6338H26.4941L26.2879 13.3611L27.25 13.6338ZM32.3125 13.6338L33.2763 13.3672L33.0735 12.6338H32.3125V13.6338ZM41.0938 45.3838L42.0689 45.1622L42.0637 45.1396L42.0576 45.1172L41.0938 45.3838ZM42.3438 50.8838L41.3686 51.1054L43.3315 51.04L42.3438 50.8838ZM43.3125 44.7588L42.3373 44.5375L42.33 44.5698L42.3248 44.6026L43.3125 44.7588ZM50.375 13.6338V12.6338H49.5765L49.3998 13.4125L50.375 13.6338ZM56.4062 13.6338L57.3781 13.8694L57.6777 12.6338H56.4062V13.6338ZM45.375 59.1338V60.1338H46.1615L46.3468 59.3694L45.375 59.1338ZM39.9062 59.1338L38.944 59.4059L39.1498 60.1338H39.9062V59.1338ZM30.5312 25.9775L29.552 26.1804L29.5593 26.2153L29.569 26.2496L30.5312 25.9775ZM29.8125 22.5088L30.7917 22.3059H28.8333L29.8125 22.5088ZM29.0938 25.9775L30.0534 26.2588L30.0647 26.22L30.073 26.1804L29.0938 25.9775ZM19.375 59.1338V60.1338H20.124L20.3346 59.4151L19.375 59.1338ZM13.9062 59.1338L12.9343 59.3688L13.1192 60.1338H13.9062V59.1338ZM2.90625 13.6338V12.6338H1.63568L1.93425 13.8688L2.90625 13.6338ZM8.90625 13.6338L9.88066 13.409L9.70182 12.6338H8.90625V13.6338ZM15.1042 44.9343L15.9792 50.9343L17.9583 50.6457L17.0833 44.6457L15.1042 44.9343ZM17.9418 51.0206L19.223 45.6144L17.277 45.1532L15.9957 50.5594L17.9418 51.0206ZM19.2121 45.6565L28.2121 13.9065L26.2879 13.3611L17.2879 45.1111L19.2121 45.6565ZM27.25 14.6338H32.3125V12.6338H27.25V14.6338ZM31.3487 13.9004L40.1299 45.6504L42.0576 45.1172L33.2763 13.3672L31.3487 13.9004ZM40.1186 45.6054L41.3686 51.1054L43.3189 50.6622L42.0689 45.1622L40.1186 45.6054ZM43.3315 51.04L44.3002 44.915L42.3248 44.6026L41.356 50.7276L43.3315 51.04ZM44.2877 44.9801L51.3502 13.8551L49.3998 13.4125L42.3373 44.5375L44.2877 44.9801ZM50.375 14.6338H56.4062V12.6338H50.375V14.6338ZM55.4344 13.3982L44.4032 58.8982L46.3468 59.3694L57.3781 13.8694L55.4344 13.3982ZM45.375 58.1338H39.9062V60.1338H45.375V58.1338ZM40.8685 58.8617L31.4935 25.7055L29.569 26.2496L38.944 59.4059L40.8685 58.8617ZM31.5105 25.7746L30.7917 22.3059L28.8333 22.7117L29.552 26.1804L31.5105 25.7746ZM28.8333 22.3059L28.1145 25.7746L30.073 26.1804L30.7917 22.7117L28.8333 22.3059ZM28.1341 25.6963L18.4154 58.8525L20.3346 59.4151L30.0534 26.2588L28.1341 25.6963ZM19.375 58.1338H13.9062V60.1338H19.375V58.1338ZM14.8782 58.8988L3.87825 13.3988L1.93425 13.8688L12.9343 59.3688L14.8782 58.8988ZM2.90625 14.6338H8.90625V12.6338H2.90625V14.6338ZM7.93184 13.8586L15.1193 45.0148L17.0682 44.5653L9.88066 13.409L7.93184 13.8586Z" fill="#525252"/>
<line x1="1.5" y1="66.8855" x2="58.5089" y2="66.8855" stroke="#FF8D00" stroke-width="3" stroke-linecap="square" stroke-linejoin="bevel"/>
</svg>
